<mxfile host="app.diagrams.net" modified="2022-07-07T12:19:15.584Z" agent="5.0 (X11; Linux x86_64) AppleWebKit/537.36 (KHTML, like Gecko) Chrome/103.0.0.0 Safari/537.36" etag="38XHB3Y2Vlp0aYM2KeIW" version="20.0.4" type="github">
  <diagram id="yo5wJuBHdFBej1qaKXEx" name="Page-1">
    <mxGraphModel dx="4212" dy="1780" grid="1" gridSize="10" guides="1" tooltips="1" connect="1" arrows="1" fold="1" page="1" pageScale="1" pageWidth="850" pageHeight="1100" math="0" shadow="0">
      <root>
        <mxCell id="0" />
        <mxCell id="1" parent="0" />
        <mxCell id="QExjVBk4rwrkzFXUMXUO-1" value="" style="rounded=0;whiteSpace=wrap;html=1;" vertex="1" parent="1">
          <mxGeometry x="-720" y="120" width="120" height="60" as="geometry" />
        </mxCell>
        <mxCell id="QExjVBk4rwrkzFXUMXUO-5" value="" style="rounded=0;whiteSpace=wrap;html=1;" vertex="1" parent="1">
          <mxGeometry x="-2350" y="-670" width="1480" height="870" as="geometry" />
        </mxCell>
        <mxCell id="QExjVBk4rwrkzFXUMXUO-6" value="" style="rounded=0;whiteSpace=wrap;html=1;" vertex="1" parent="1">
          <mxGeometry x="-2310" y="-610" width="330" height="220" as="geometry" />
        </mxCell>
        <mxCell id="QExjVBk4rwrkzFXUMXUO-9" style="edgeStyle=orthogonalEdgeStyle;rounded=0;orthogonalLoop=1;jettySize=auto;html=1;" edge="1" parent="1" source="QExjVBk4rwrkzFXUMXUO-7" target="QExjVBk4rwrkzFXUMXUO-8">
          <mxGeometry relative="1" as="geometry" />
        </mxCell>
        <mxCell id="QExjVBk4rwrkzFXUMXUO-7" value="Client" style="image;html=1;image=img/lib/clip_art/computers/Laptop_128x128.png" vertex="1" parent="1">
          <mxGeometry x="-2290" y="-590" width="80" height="70" as="geometry" />
        </mxCell>
        <mxCell id="QExjVBk4rwrkzFXUMXUO-12" style="edgeStyle=orthogonalEdgeStyle;rounded=0;orthogonalLoop=1;jettySize=auto;html=1;entryX=0;entryY=0.659;entryDx=0;entryDy=0;entryPerimeter=0;" edge="1" parent="1" source="QExjVBk4rwrkzFXUMXUO-8" target="QExjVBk4rwrkzFXUMXUO-10">
          <mxGeometry relative="1" as="geometry" />
        </mxCell>
        <mxCell id="QExjVBk4rwrkzFXUMXUO-8" value="Browser" style="aspect=fixed;html=1;points=[];align=center;image;fontSize=12;image=img/lib/azure2/general/Browser.svg;" vertex="1" parent="1">
          <mxGeometry x="-2130" y="-500" width="100" height="80" as="geometry" />
        </mxCell>
        <mxCell id="QExjVBk4rwrkzFXUMXUO-21" style="edgeStyle=orthogonalEdgeStyle;rounded=0;orthogonalLoop=1;jettySize=auto;html=1;" edge="1" parent="1" source="QExjVBk4rwrkzFXUMXUO-10">
          <mxGeometry relative="1" as="geometry">
            <mxPoint x="-1500" y="-474" as="targetPoint" />
          </mxGeometry>
        </mxCell>
        <mxCell id="QExjVBk4rwrkzFXUMXUO-10" value="Internet" style="aspect=fixed;perimeter=ellipsePerimeter;html=1;align=center;shadow=0;dashed=0;spacingTop=3;image;image=img/lib/active_directory/internet_cloud.svg;" vertex="1" parent="1">
          <mxGeometry x="-1780" y="-520" width="144.44" height="91" as="geometry" />
        </mxCell>
        <mxCell id="QExjVBk4rwrkzFXUMXUO-22" style="edgeStyle=orthogonalEdgeStyle;rounded=0;orthogonalLoop=1;jettySize=auto;html=1;" edge="1" parent="1" source="QExjVBk4rwrkzFXUMXUO-13" target="QExjVBk4rwrkzFXUMXUO-15">
          <mxGeometry relative="1" as="geometry" />
        </mxCell>
        <mxCell id="QExjVBk4rwrkzFXUMXUO-13" value="Router" style="sketch=0;aspect=fixed;pointerEvents=1;shadow=0;dashed=0;html=1;strokeColor=none;labelPosition=center;verticalLabelPosition=bottom;verticalAlign=top;align=center;fillColor=#00188D;shape=mxgraph.mscae.enterprise.router" vertex="1" parent="1">
          <mxGeometry x="-1491.28" y="-509" width="102.56" height="80" as="geometry" />
        </mxCell>
        <mxCell id="QExjVBk4rwrkzFXUMXUO-23" style="edgeStyle=orthogonalEdgeStyle;rounded=0;orthogonalLoop=1;jettySize=auto;html=1;" edge="1" parent="1" source="QExjVBk4rwrkzFXUMXUO-15" target="QExjVBk4rwrkzFXUMXUO-19">
          <mxGeometry relative="1" as="geometry" />
        </mxCell>
        <mxCell id="QExjVBk4rwrkzFXUMXUO-40" style="edgeStyle=orthogonalEdgeStyle;rounded=0;orthogonalLoop=1;jettySize=auto;html=1;entryX=0.25;entryY=0;entryDx=0;entryDy=0;" edge="1" parent="1" source="QExjVBk4rwrkzFXUMXUO-15" target="QExjVBk4rwrkzFXUMXUO-31">
          <mxGeometry relative="1" as="geometry" />
        </mxCell>
        <mxCell id="QExjVBk4rwrkzFXUMXUO-15" value="Firewall" style="image;html=1;image=img/lib/clip_art/networking/Firewall_02_128x128.png" vertex="1" parent="1">
          <mxGeometry x="-1480" y="-299.5" width="80" height="80" as="geometry" />
        </mxCell>
        <mxCell id="QExjVBk4rwrkzFXUMXUO-28" style="edgeStyle=orthogonalEdgeStyle;rounded=0;orthogonalLoop=1;jettySize=auto;html=1;" edge="1" parent="1" source="QExjVBk4rwrkzFXUMXUO-19" target="QExjVBk4rwrkzFXUMXUO-26">
          <mxGeometry relative="1" as="geometry" />
        </mxCell>
        <mxCell id="QExjVBk4rwrkzFXUMXUO-29" style="edgeStyle=orthogonalEdgeStyle;rounded=0;orthogonalLoop=1;jettySize=auto;html=1;entryX=0.88;entryY=0.5;entryDx=0;entryDy=0;entryPerimeter=0;" edge="1" parent="1" source="QExjVBk4rwrkzFXUMXUO-19" target="QExjVBk4rwrkzFXUMXUO-27">
          <mxGeometry relative="1" as="geometry">
            <Array as="points">
              <mxPoint x="-1820" y="-259" />
              <mxPoint x="-1820" y="-187" />
            </Array>
          </mxGeometry>
        </mxCell>
        <mxCell id="QExjVBk4rwrkzFXUMXUO-19" value="Proxy server" style="fontColor=#0066CC;verticalAlign=top;verticalLabelPosition=bottom;labelPosition=center;align=center;html=1;outlineConnect=0;fillColor=#CCCCCC;strokeColor=#6881B3;gradientColor=none;gradientDirection=north;strokeWidth=2;shape=mxgraph.networks.proxy_server;" vertex="1" parent="1">
          <mxGeometry x="-1741" y="-312" width="105" height="105" as="geometry" />
        </mxCell>
        <mxCell id="QExjVBk4rwrkzFXUMXUO-24" value="" style="rounded=0;whiteSpace=wrap;html=1;" vertex="1" parent="1">
          <mxGeometry x="-1480" y="-140" width="450" height="320" as="geometry" />
        </mxCell>
        <mxCell id="QExjVBk4rwrkzFXUMXUO-26" value="Developer" style="image;html=1;image=img/lib/clip_art/computers/Monitor_Tower_128x128.png" vertex="1" parent="1">
          <mxGeometry x="-1980" y="-350" width="80" height="70" as="geometry" />
        </mxCell>
        <mxCell id="QExjVBk4rwrkzFXUMXUO-27" value="Admin" style="sketch=0;pointerEvents=1;shadow=0;dashed=0;html=1;strokeColor=none;labelPosition=center;verticalLabelPosition=bottom;verticalAlign=top;align=center;fillColor=#515151;shape=mxgraph.mscae.system_center.admin_console" vertex="1" parent="1">
          <mxGeometry x="-1970" y="-220" width="90" height="66" as="geometry" />
        </mxCell>
        <mxCell id="QExjVBk4rwrkzFXUMXUO-42" style="edgeStyle=orthogonalEdgeStyle;rounded=0;orthogonalLoop=1;jettySize=auto;html=1;" edge="1" parent="1" source="QExjVBk4rwrkzFXUMXUO-31" target="QExjVBk4rwrkzFXUMXUO-32">
          <mxGeometry relative="1" as="geometry" />
        </mxCell>
        <mxCell id="QExjVBk4rwrkzFXUMXUO-31" value="Web Server" style="image;html=1;image=img/lib/clip_art/computers/Server_Rack_128x128.png" vertex="1" parent="1">
          <mxGeometry x="-1470" y="-110" width="120" height="110" as="geometry" />
        </mxCell>
        <mxCell id="QExjVBk4rwrkzFXUMXUO-43" style="edgeStyle=orthogonalEdgeStyle;rounded=0;orthogonalLoop=1;jettySize=auto;html=1;" edge="1" parent="1" source="QExjVBk4rwrkzFXUMXUO-32" target="QExjVBk4rwrkzFXUMXUO-33">
          <mxGeometry relative="1" as="geometry" />
        </mxCell>
        <mxCell id="QExjVBk4rwrkzFXUMXUO-32" value="Application sserver" style="image;html=1;image=img/lib/clip_art/computers/Server_Rack_128x128.png" vertex="1" parent="1">
          <mxGeometry x="-1320" y="20" width="140" height="110" as="geometry" />
        </mxCell>
        <mxCell id="QExjVBk4rwrkzFXUMXUO-33" value="Database server" style="image;html=1;image=img/lib/clip_art/computers/Server_Rack_128x128.png" vertex="1" parent="1">
          <mxGeometry x="-1150" y="-115" width="80" height="120" as="geometry" />
        </mxCell>
        <mxCell id="QExjVBk4rwrkzFXUMXUO-41" value="" style="endArrow=classic;html=1;rounded=0;" edge="1" parent="1">
          <mxGeometry width="50" height="50" relative="1" as="geometry">
            <mxPoint x="-1440" y="-140" as="sourcePoint" />
            <mxPoint x="-1440" y="-100" as="targetPoint" />
          </mxGeometry>
        </mxCell>
      </root>
    </mxGraphModel>
  </diagram>
</mxfile>
